<svg width="80" height="28" viewBox="0 0 80 28" xmlns="http://www.w3.org/2000/svg">
  <defs>
    <linearGradient id="despegarGradient" x1="0%" y1="0%" x2="100%" y2="100%">
      <stop offset="0%" stop-color="#1D0F91" />
      <stop offset="100%" stop-color="#FF004D" />
    </linearGradient>
  </defs>
  <rect width="80" height="28" rx="6" ry="6" fill="white" />
  <path d="M10 18l18-8 4.2 5.6 6.4-4.2c.5-.3 1.1-.1 1.3.4l1.5 4.8 9.9 3.3c.7.2.7 1.2 0 1.4l-9.9 3.2c-.6.2-1.2-.2-1.3-.8l-.9-3.5-6.3 3.4c-.5.3-1 .1-1.3-.4l-3.8-6-12.8 4c-.8.2-1.3-.8-.8-1.2z" fill="url(#despegarGradient)" />
  <text x="38" y="19" font-family="'Helvetica Neue', Arial, sans-serif" font-size="11" fill="#1D0F91" font-weight="600">Despegar</text>
</svg>
