<?xml version="1.0" encoding="UTF-8" standalone="no"?>
<svg
   xmlns:dc="http://purl.org/dc/elements/1.1/"
   xmlns:cc="http://creativecommons.org/ns#"
   xmlns:rdf="http://www.w3.org/1999/02/22-rdf-syntax-ns#"
   xmlns:svg="http://www.w3.org/2000/svg"
   xmlns="http://www.w3.org/2000/svg"
   xmlns:sodipodi="http://sodipodi.sourceforge.net/DTD/sodipodi-0.dtd"
   xmlns:inkscape="http://www.inkscape.org/namespaces/inkscape"
   x="0px"
   y="0px"
   viewBox="0 0 1000 1000.0001"
   class="logo"
   version="1.1"
   id="svg6137"
   sodipodi:docname="A.svg"
   width="1000"
   height="1000.0001"
   inkscape:version="0.92.4 (5da689c313, 2019-01-14)">
  <metadata
     id="metadata6143">
    <rdf:RDF>
      <cc:Work
         rdf:about="">
        <dc:format>image/svg+xml</dc:format>
        <dc:type
           rdf:resource="http://purl.org/dc/dcmitype/StillImage" />
        <dc:title></dc:title>
      </cc:Work>
    </rdf:RDF>
  </metadata>
  <defs
     id="defs6141">
    <clipPath
       clipPathUnits="userSpaceOnUse"
       id="clipPath9930">
      <path
         d="m 27.638,117.638 h 68.031 v 68.031 H 27.638 Z"
         id="path9928"
         inkscape:connector-curvature="0" />
    </clipPath>
  </defs>
  <sodipodi:namedview
     pagecolor="#ffffff"
     bordercolor="#666666"
     borderopacity="1"
     objecttolerance="10"
     gridtolerance="10"
     guidetolerance="10"
     inkscape:pageopacity="0"
     inkscape:pageshadow="2"
     inkscape:window-width="1920"
     inkscape:window-height="1017"
     id="namedview6139"
     showgrid="false"
     fit-margin-top="0"
     fit-margin-left="0"
     fit-margin-right="0"
     fit-margin-bottom="0"
     inkscape:zoom="0.45342466"
     inkscape:cx="990.71404"
     inkscape:cy="31.873525"
     inkscape:window-x="1912"
     inkscape:window-y="-8"
     inkscape:window-maximized="1"
     inkscape:current-layer="svg6137" />
  <path
     d="M 1000,1000.0001 H 0 V 0 h 1000 z"
     style="fill:#2c73c3;fill-opacity:1;fill-rule:nonzero;stroke:none;stroke-width:24.21659279"
     id="path9910"
     inkscape:connector-curvature="0" />
  <g
     id="g9912"
     transform="matrix(24.216594,0,0,-24.216594,627.26546,741.46623)">
    <path
       d="M 0,0 H 1.521 V -6.083 H 2.91 V 0 H 4.431 V 0.604 H 0 Z"
       style="fill:#ffffff;fill-opacity:1;fill-rule:nonzero;stroke:none"
       id="path9914"
       inkscape:connector-curvature="0" />
  </g>
  <g
     id="g9916"
     transform="matrix(24.216594,0,0,-24.216594,787.2088,741.46623)">
    <path
       d="M 0,0 H 1.521 V -6.083 H 2.91 V 0 H 4.431 V 0.604 H 0 Z"
       style="fill:#ffffff;fill-opacity:1;fill-rule:nonzero;stroke:none"
       id="path9918"
       inkscape:connector-curvature="0" />
  </g>
  <g
     id="g9920"
     transform="matrix(24.216594,0,0,-24.216594,490.92119,831.93446)">
    <path
       d="M 0,0 0.738,2.168 1.432,0 Z m 2.183,-2.348 h 1.44 L 1.483,4.339 H 0.599 l -2.276,-6.687 h 0.878 l 0.596,1.752 h 1.826 z"
       style="fill:#ffffff;fill-opacity:1;fill-rule:nonzero;stroke:none"
       id="path9922"
       inkscape:connector-curvature="0" />
  </g>
  <g
     transform="matrix(24.216594,0,0,-24.216594,-993.14667,4172.4221)"
     id="g9924">
    <g
       id="g9926"
       clip-path="url(#clipPath9930)">
      <g
         id="g9932"
         transform="translate(75.5527,167.1053)">
        <path
           d="M 0,0 C 0.893,0 1.449,-1.168 1.45,-2.752 1.449,-4.3 0.919,-5.443 0.062,-5.487 h -0.51 V 0 Z m -1.837,0.598 v -6.687 h 2.11 c 1.623,0 2.566,1.246 2.566,3.341 0,2.087 -0.943,3.346 -2.566,3.346 z"
           style="fill:#ffffff;fill-opacity:1;fill-rule:nonzero;stroke:none"
           id="path9934"
           inkscape:connector-curvature="0" />
      </g>
      <g
         id="g9936"
         transform="translate(61.9719,164.3495)">
        <path
           d="M 0,0 V 2.755 H 0.371 C 1.127,2.755 1.437,2.229 1.437,1.4 1.437,0.461 1.063,0 0.371,0 Z m 3.257,-3.333 -1.454,2.957 c 0.703,0.287 1.035,0.852 1.035,1.775 0,1.313 -0.76,1.955 -2.443,1.955 H -1.389 V -3.333 H 0 v 2.735 c 0,0 0.418,0.001 0.43,0.001 l 1.345,-2.736 z"
           style="fill:#ffffff;fill-opacity:1;fill-rule:nonzero;stroke:none"
           id="path9938"
           inkscape:connector-curvature="0" />
      </g>
      <g
         id="g9940"
         transform="translate(50.3654,167.7031)">
        <path
           d="M 0,0 -0.851,-3.714 -1.72,0 H -2.418 L -3.27,-3.716 -4.138,0 h -1.376 l 1.564,-6.687 h 0.698 l 0.868,3.786 0.852,-3.786 h 0.698 L 0.746,0 Z"
           style="fill:#ffffff;fill-opacity:1;fill-rule:nonzero;stroke:none"
           id="path9942"
           inkscape:connector-curvature="0" />
      </g>
      <g
         id="g9944"
         transform="translate(67.8068,148.3053)">
        <path
           d="M 0,0 H 1.39 V 3.311 H 3.696 V 3.909 H 1.39 v 2.18 H 4.086 V 6.687 H 0 Z"
           style="fill:#ffffff;fill-opacity:1;fill-rule:nonzero;stroke:none"
           id="path9946"
           inkscape:connector-curvature="0" />
      </g>
      <g
         id="g9948"
         transform="translate(55.4906,148.8075)">
        <path
           d="M 0,0 C -0.629,0 -1.057,0.562 -1.058,2.841 -1.057,5.121 -0.629,5.683 0,5.683 0.629,5.683 1.057,5.121 1.058,2.841 1.057,0.562 0.629,0 0,0 M 2.582,2.846 H 2.581 C 2.579,3.943 2.315,4.834 1.819,5.43 1.358,5.984 0.76,6.277 0,6.277 -0.76,6.277 -1.358,5.984 -1.819,5.43 -2.315,4.834 -2.579,3.943 -2.581,2.846 h -10e-4 c 0,-0.002 10e-4,-0.003 10e-4,-0.005 0,-0.001 -10e-4,-0.003 -10e-4,-0.004 h 10e-4 C -2.579,1.74 -2.315,0.848 -1.819,0.252 -1.358,-0.302 -0.76,-0.594 0,-0.594 c 0.76,0 1.358,0.292 1.819,0.846 0.496,0.596 0.76,1.488 0.762,2.585 h 10e-4 c 0,10e-4 -10e-4,0.003 -10e-4,0.004 0,0.002 10e-4,0.003 10e-4,0.005"
           style="fill:#ffffff;fill-opacity:1;fill-rule:nonzero;stroke:none"
           id="path9950"
           inkscape:connector-curvature="0" />
      </g>
      <g
         id="g9952"
         transform="translate(48.8105,139.2271)">
        <path
           d="m 0,0 h -1.817 v 3.054 h -1.389 v -6.687 h 1.389 v 3.03 H 0 v -3.03 H 1.386 V 3.054 H 0 Z"
           style="fill:#ffffff;fill-opacity:1;fill-rule:nonzero;stroke:none"
           id="path9954"
           inkscape:connector-curvature="0" />
      </g>
      <g
         id="g9956"
         transform="translate(57.362,142.2812)">
        <path
           d="M 0,0 -1.549,-2.865 -3.114,0 h -1.503 l 1.971,-3.584 v -3.103 h 1.4 v 3.056 L 0.712,0 Z"
           style="fill:#ffffff;fill-opacity:1;fill-rule:nonzero;stroke:none"
           id="path9958"
           inkscape:connector-curvature="0" />
      </g>
      <g
         id="g9960"
         transform="translate(71.6372,161.6145)">
        <path
           d="M 0,0 H -2.441 V 6.089 H -3.83 V -0.598 H 0 Z"
           style="fill:#ffffff;fill-opacity:1;fill-rule:nonzero;stroke:none"
           id="path9962"
           inkscape:connector-curvature="0" />
      </g>
      <g
         id="g9964"
         transform="translate(55.4906,161.5188)">
        <path
           d="M 0,0 C -0.629,0 -1.057,0.562 -1.058,2.841 -1.057,5.121 -0.629,5.683 0,5.683 0.629,5.683 1.057,5.121 1.058,2.841 1.057,0.562 0.629,0 0,0 M 2.582,2.846 H 2.581 C 2.579,3.943 2.315,4.834 1.819,5.43 1.358,5.984 0.76,6.277 0,6.277 -0.76,6.277 -1.358,5.984 -1.819,5.43 -2.315,4.834 -2.579,3.943 -2.581,2.846 h -10e-4 c 0,-0.002 10e-4,-0.003 10e-4,-0.005 0,-0.001 -10e-4,-0.003 -10e-4,-0.004 h 10e-4 C -2.579,1.739 -2.315,0.848 -1.819,0.252 -1.358,-0.302 -0.76,-0.594 0,-0.594 c 0.76,0 1.358,0.292 1.819,0.846 0.496,0.596 0.76,1.487 0.762,2.585 h 10e-4 c 0,10e-4 -10e-4,0.003 -10e-4,0.004 0,0.002 10e-4,0.003 10e-4,0.005"
           style="fill:#ffffff;fill-opacity:1;fill-rule:nonzero;stroke:none"
           id="path9966"
           inkscape:connector-curvature="0" />
      </g>
    </g>
  </g>
</svg>
